<svg width="100" height="83" viewBox="0 0 100 83" fill="none" xmlns="http://www.w3.org/2000/svg">
<path d="M26.1181 43.4353C27.0321 49.1244 26.7599 50.3476 25.8653 52.6582C25.8069 52.8136 26.4293 53.3378 26.6626 52.7553C27.3822 50.8913 27.3822 50.8719 27.4989 49.2409C27.6156 47.1827 26.0792 43.2799 26.1181 43.4353ZM63.4966 41.5324C63.5355 41.3577 60.9295 46.9303 61.0851 49.1826C61.2212 50.969 61.1434 51.5126 62.0186 53.532C62.2908 54.1727 63.0493 53.5902 62.991 53.4155C61.7658 49.435 61.5713 49.202 63.4966 41.5324ZM67.6001 42.0761C67.639 41.9013 65.7914 46.406 65.947 48.6584C66.0831 50.4447 66.0248 50.1729 66.9 52.1922C67.1722 52.833 67.9696 52.2893 67.8918 52.134C66.8222 49.6098 66.4915 48.2895 67.6001 42.0761ZM72.1703 42.9887C72.1897 42.8528 70.6145 46.2701 70.7506 48.0759C70.8673 49.5127 70.8673 49.5321 71.6063 51.1437C71.8397 51.6486 72.4814 51.202 72.4231 51.0661C71.5091 49.0661 71.2173 47.9788 72.1703 42.9887ZM41.8318 39.6102C41.5401 39.2218 41.0734 38.8141 41.3068 39.2801C41.9096 40.5616 42.6292 41.1829 43.7183 41.4159C45.0018 41.6878 46.0325 40.8723 46.6938 39.4548C46.9077 38.9694 45.6436 40.6198 44.0683 40.581C43.1154 40.5616 42.4153 40.3674 41.8318 39.6102ZM41.9485 45.4158C41.6568 45.0274 41.1901 44.6197 41.4234 45.0857C42.0263 46.3672 42.7459 46.9885 43.835 47.2215C45.1185 47.4934 46.1492 46.6779 46.8105 45.2604C47.0244 44.775 45.7603 46.4254 44.185 46.3866C43.2321 46.3672 42.532 46.1924 41.9485 45.4158ZM42.0652 51.668C41.7735 51.2796 41.3068 50.8719 41.5401 51.3573C42.143 52.6388 42.8626 53.2602 43.9516 53.4932C45.2352 53.765 46.2659 52.9495 46.9271 51.5321C47.1411 51.0466 45.877 52.6971 44.3017 52.6582C43.3488 52.6194 42.6292 52.4446 42.0652 51.668ZM42.3764 57.027C42.0847 56.6387 41.6179 56.2309 41.8513 56.7163C42.4542 57.9978 43.1737 58.6192 44.2628 58.8522C45.5464 59.124 46.5771 58.3085 47.2383 56.8911C47.4522 56.4057 46.1881 58.0561 44.6129 58.0173C43.6794 57.9784 42.9598 57.8037 42.3764 57.027ZM47.355 36.5811C47.0633 36.1928 46.5965 35.7851 46.8299 36.2511C47.4328 37.5326 48.1523 38.1539 49.2414 38.3869C50.525 38.6587 51.5557 37.8432 52.2169 36.4258C52.4308 35.9404 51.1667 37.5908 49.5915 37.552C48.6385 37.5132 47.9384 37.3384 47.355 36.5811ZM47.4522 42.3868C47.1605 41.9984 46.6938 41.5907 46.9271 42.0567C47.53 43.3382 48.2496 43.9595 49.3387 44.1925C50.6222 44.4644 51.6529 43.6489 52.3142 42.2314C52.5281 41.746 51.264 43.3964 49.6887 43.3576C48.7358 43.3382 48.0357 43.144 47.4522 42.3868ZM47.5689 48.639C47.2772 48.2506 46.8105 47.8429 47.0438 48.3089C47.6467 49.5904 48.3663 50.2117 49.4553 50.4447C50.7389 50.7166 51.7696 49.9011 52.4308 48.4836C52.6448 47.9982 51.3807 49.6486 49.8054 49.6098C48.8525 49.5904 48.1523 49.3962 47.5689 48.639ZM47.8995 53.998C47.6078 53.6097 47.1411 53.2019 47.3744 53.6873C47.9773 54.9688 48.6969 55.5902 49.786 55.8232C51.0695 56.095 52.1002 55.2795 52.7615 53.8621C52.9754 53.3767 51.7113 55.0271 50.136 54.9882C49.1831 54.9494 48.483 54.7747 47.8995 53.998ZM52.4503 39.9014C52.1586 39.5131 51.6918 39.1053 51.9252 39.5713C52.5281 40.8528 53.2477 41.4742 54.3367 41.7072C55.6203 41.979 56.651 41.1635 57.3122 39.7461C57.5261 39.2607 56.262 40.9111 54.6868 40.8723C53.7338 40.8334 53.0143 40.6587 52.4503 39.9014ZM52.5475 45.707C52.2558 45.3187 51.7891 44.9109 52.0224 45.3769C52.6253 46.6585 53.3449 47.2798 54.434 47.5128C55.7175 47.7846 56.7482 46.9691 57.4095 45.5517C57.6234 45.0663 56.3593 46.7167 54.784 46.6779C53.8311 46.6585 53.131 46.4643 52.5475 45.707ZM52.6642 51.9592C52.3725 51.5709 51.9058 51.1631 52.1391 51.6486C52.742 52.9301 53.4616 53.5514 54.5506 53.7844C55.8342 54.0562 56.8649 53.2407 57.5261 51.8233C57.7401 51.3379 56.476 52.9883 54.9007 52.9495C53.9478 52.9107 53.2282 52.7359 52.6642 51.9592ZM52.9948 57.3183C52.7031 56.9299 52.2364 56.5222 52.4697 56.9882C53.0726 58.2697 53.7922 58.891 54.8813 59.124C56.1648 59.3959 57.1955 58.5803 57.8568 57.1629C58.0707 56.6775 56.8066 58.3279 55.2313 58.2891C54.2784 58.2697 53.5588 58.0949 52.9948 57.3183ZM34.5001 41.7848C36.367 50.5418 36.1726 50.7942 34.9862 55.3572C34.9279 55.5513 35.6669 56.2115 35.9197 55.4931C36.756 53.1825 36.6976 52.5417 36.8143 50.5224C36.9699 47.94 34.4612 41.5907 34.5001 41.7848ZM30.5522 42.4062C31.6218 49.4933 31.2912 51.0078 30.2605 53.8815C30.1827 54.0757 30.9606 54.6776 31.2328 53.9592C32.0691 51.6486 32.0302 51.9592 32.1469 49.9205C32.3025 47.338 30.5133 42.1926 30.5522 42.4062ZM47.8606 19.941C47.3939 19.941 47.0244 20.3293 47.0244 20.7953C47.0244 21.1448 47.4328 21.6497 47.8023 21.6691C49.4942 21.7467 48.9108 20.7759 49.2998 20.7759C49.5915 20.7759 51.5751 20.7371 51.5751 21.572C51.5751 21.9021 51.7891 21.9603 51.7891 21.6108C51.7696 20.4652 48.7358 19.941 47.8606 19.941ZM66.2582 26.8339C72.1314 27.4553 78.024 38.3481 77.9657 46.3284C77.9657 47.5322 75.7487 45.5517 76.2543 46.639C77.8685 50.0758 77.0711 53.9786 77.2267 56.0756C77.3434 57.4153 75.632 57.6872 75.632 57.6872C75.632 61.8812 75.1263 64.9685 73.376 68.813C72.1119 71.6284 69.681 74.871 68.942 77.6282C67.2889 77.1622 65.8887 74.8322 65.8887 73.6866C65.8887 71.8032 68.3002 67.2402 69.5643 63.9588C70.1477 62.2113 70.42 60.8327 71.2951 60.0366C69.681 61.3181 69.4087 62.6967 68.6308 64.3277C67.4834 66.7936 65.597 70.6187 65.0719 73.0264C63.8272 71.9779 62.6798 70.5217 62.6798 69.1431C62.6798 68.4247 65.9665 60.5803 66.9972 58.9104C63.9439 61.221 63.5744 65.1821 62.038 68.5606C61.0851 67.7645 60.0932 66.0946 60.0932 64.8908C60.0932 63.8617 62.6409 57.8813 63.2632 57.2988C61.1045 58.3473 60.1127 62.0948 59.4709 64.2306C58.0123 62.8909 57.7984 61.0851 57.7206 59.6288C57.1955 62.0754 55.0757 67.7645 55.0757 68.6188C55.0757 69.279 56.7871 73.706 57.3317 74.405C57.7401 74.4438 58.4791 73.706 59.8015 74.4438C60.4239 75.0846 60.6961 74.5992 61.4157 76.1331C61.0073 76.1525 60.3655 75.5894 60.0932 75.4924C59.257 75.2011 59.5098 75.5118 58.9264 75.803C58.2846 76.1137 57.6234 75.4729 57.4873 75.57C59.0042 76.7933 59.821 76.8904 59.1792 78.599C59.0625 78.9291 58.6347 79.8611 58.4985 80.0359C58.2457 79.7446 58.343 78.4631 58.0901 77.7835C56.2426 77.7641 57.3317 75.9778 56.3204 75.8613C55.9314 77.7447 54.0256 76.0749 53.5394 77.9389L52.9754 78.5408C52.7615 75.0846 55.523 75.0458 55.4841 74.871C54.434 70.1333 49.572 66.0364 49.572 66.0364C47.6078 68.58 45.5658 69.5702 43.7766 74.871C43.7183 75.0458 46.4604 75.5118 46.8299 78.9874L46.4798 78.8515C46.3826 78.366 45.8381 77.7253 45.2352 77.6088C44.3017 77.4146 43.2126 77.7253 43.4266 76.0749C43.0765 76.3273 43.057 76.6962 42.5903 77.4146C42.2208 77.9777 41.2679 78.6767 41.1512 79.4534C41.0734 79.9582 41.4623 80.5213 41.7346 81.0456C41.5401 80.7931 40.276 79.667 40.4316 79.3369C41.404 77.201 39.4398 77.5505 41.754 75.57C41.6374 75.4535 40.9567 76.3467 40.3149 76.036C39.5176 75.6477 39.7704 76.6379 38.1173 76.5991C39.1092 75.9584 39.3036 74.8904 40.2177 74.5021C40.6066 74.3468 41.7929 74.3662 42.2013 74.3273C42.7459 73.6283 44.1461 69.279 44.1461 68.6188C44.1461 67.7645 42.0263 62.0754 41.5012 59.6288C41.4234 61.0851 41.229 62.8909 39.7509 64.2306C39.1092 62.0948 38.1173 58.3473 35.9586 57.2988C36.581 57.8813 39.1286 63.8617 39.1286 64.8908C39.1286 66.0946 38.1368 67.7645 37.1838 68.5606C35.6475 65.1821 35.278 61.2016 32.2247 58.9104C33.2554 60.5803 36.5421 68.4247 36.5421 69.1431C36.5421 70.5022 35.3946 71.9585 34.15 73.0264C33.6249 70.6382 31.7385 66.7936 30.5911 64.3277C29.8132 62.6967 29.5409 61.3181 27.9267 60.0366C28.8019 60.8327 29.0741 62.2113 29.6576 63.9588C30.9217 67.2208 33.3332 71.7838 33.3332 73.6866C33.3332 74.8128 31.9135 77.1622 30.2799 77.6282C29.5214 74.871 27.2849 71.5507 25.8458 68.813C22.0924 61.6676 24.0177 60.1919 23.4149 56.4251C23.2204 55.2212 22.0924 56.5998 22.2091 54.4446C22.2091 54.4446 20.1865 47.008 23.726 41.8819C23.7844 41.047 21.684 42.8528 21.7812 42.0761C22.2285 38.8529 26.3709 27.5135 32.9831 26.8339C36.9116 26.4262 36.7171 31.6105 39.187 33.3774C39.7509 33.7851 40.4511 34.0181 41.3651 34.0181C43.0376 34.0181 44.0294 32.9308 44.6129 31.5716C45.4102 29.7853 45.4686 27.5524 45.4686 26.8922C45.4686 25.1058 45.6436 22.737 42.2013 22.8341C42.8042 22.4652 43.4655 22.3681 43.8155 22.3681C44.8268 22.3681 45.8575 22.8341 46.8299 23.5137L47.0438 23.2807C46.3632 22.1351 44.574 21.7856 43.7377 21.7856C43.1543 21.7856 41.2873 22.2127 40.9567 22.9312C40.7428 22.7758 40.5872 22.6399 40.5872 22.2904C40.5677 21.4749 40.7817 20.4264 41.2484 20.0769C42.8626 18.8925 44.3795 19.6691 45.2157 19.1061C46.6354 18.1352 47.2383 17.7663 48.4635 17.7663C48.8136 17.7663 51.8474 18.1935 53.5977 18.6401C53.7533 18.7954 53.7727 18.6983 53.7727 19.0672C53.7727 19.4361 53.6172 19.6303 53.481 19.708C54.4729 20.0963 54.9202 22.7176 54.9202 23.6302V28.6397C54.9202 30.9503 55.7175 33.4356 58.7125 33.4745C63.7105 33.5521 61.8824 26.3873 66.2582 26.8339ZM42.0069 63.454L43.5627 68.4247C42.8431 70.4828 42.7264 72.3857 41.9485 73.6866C41.6957 74.0943 40.0232 73.8419 39.5759 74.1332C39.0314 74.5021 38.3507 75.6671 37.7284 76.0943L42.0069 63.454ZM42.9793 82.094C42.6292 82.094 39.362 82.0552 38.9925 82.0552C37.9617 82.0552 36.3865 81.7251 36.3865 80.0747C36.3865 79.7058 36.9699 78.0942 37.6117 77.0457C37.8256 77.3758 37.9034 76.9874 38.2535 76.9874C38.6035 76.9874 39.0119 77.0457 39.3231 76.8904C39.3231 76.8904 40.0038 76.6185 40.1982 76.5797C39.926 77.2593 40.2955 77.9583 40.1788 78.4825C39.9649 79.3757 39.8676 79.7252 40.0815 80.0165C40.4122 80.463 40.84 81.2785 41.8318 81.4145C42.2986 81.4339 41.579 80.2495 41.579 79.6087C41.5985 78.7738 42.6681 78.366 43.0765 77.3758C43.1932 78.0942 44.3017 77.9389 45.1768 78.2301C45.8381 78.5408 45.6047 79.3175 46.8299 79.7058C47.4522 79.9 47.2772 78.6767 47.2772 78.4825C47.2772 77.2593 45.877 75.1817 44.574 74.7739C45.1574 71.4148 49.6304 67.1043 49.7665 66.949C51.089 68.3664 54.1422 71.5313 54.5895 74.5021C54.1034 75.0458 52.9754 74.9875 52.4892 77.5117C52.4503 77.7059 52.3725 79.0845 52.9754 79.3563C53.4032 79.5505 54.1228 78.4243 54.2395 77.7835C54.3951 76.968 55.4647 78.1719 56.2232 76.9486C56.476 77.2787 56.6121 77.5894 56.7677 78.0359C56.9038 78.4243 57.6428 78.1136 57.7595 78.4825C58.0318 79.3757 57.8179 80.6766 58.3624 80.6572C59.0042 80.5213 59.7821 79.201 59.7821 78.4243C59.7821 78.0554 60.3461 76.8904 59.0236 76.2302C59.1792 76.0554 60.1321 75.9972 60.1321 75.9972C60.4433 76.1525 60.9684 76.7739 61.8824 77.0651C62.5242 78.1136 63.1076 79.7252 63.1076 80.0941C63.1076 81.7251 61.7658 82.0746 60.7156 82.0746C60.385 82.0552 46.2659 82.094 42.9793 82.094ZM57.39 63.0462L61.3962 75.0846C60.7739 74.6574 60.2488 74.0361 59.7043 73.6866C59.257 73.3953 58.0707 74.0361 57.8179 73.6089C56.7482 71.7643 56.3204 70.6187 55.6008 68.5606L57.39 63.0462Z" fill="white"/>
<path fill-rule="evenodd" clip-rule="evenodd" d="M10.2875 80.2302L10.657 79.9778L10.5598 79.803C10.2681 79.3759 10.9877 78.9099 11.5905 78.4827L14.9161 76.1527C15.305 75.8809 16.1219 75.3372 16.4136 75.7449L16.5303 75.9003L16.8998 75.6479L16.7053 75.376C16.6275 75.2595 16.4914 75.1624 16.3747 75.0654C16.258 74.9489 16.1413 74.8129 16.0441 74.6576C15.9468 74.5217 15.8496 74.3664 15.7912 74.211C15.694 74.0557 15.6551 73.9003 15.5579 73.7838L15.3634 73.512L14.9939 73.7644L15.1106 73.9198C15.4023 74.3275 14.6049 74.91 14.216 75.1819L10.8904 77.5119C10.307 77.9196 9.60687 78.4439 9.2957 78.0167L9.17902 77.8614L8.80951 78.1138L8.98454 78.3662C9.06233 78.4827 9.19847 78.5992 9.2957 78.7157C9.41239 78.8322 9.52908 78.9681 9.62632 79.104C9.72355 79.24 9.80134 79.3953 9.87914 79.5506C9.93748 79.6866 10.0153 79.8419 10.0931 79.9584L10.2875 80.2302ZM8.45945 76.8323L8.34277 76.6575C8.26498 76.541 8.32332 76.3469 8.53724 76.2498C9.02344 76.0168 9.66521 76.1333 10.1514 76.1915C10.7348 76.2498 11.3572 76.2498 12.2712 76.2886C12.6796 75.1624 13.2241 74.0169 13.4381 73.5508C13.9826 72.4053 14.2743 71.8033 13.827 71.182C13.6131 70.8907 13.5159 70.8713 13.1075 70.5801L12.738 70.8519C13.0686 71.0073 13.1464 71.1238 13.1852 71.182C13.3408 71.415 13.0491 71.9198 12.8546 72.2888C12.5629 72.8713 12.2712 73.4926 11.9989 74.0751C11.7461 74.6188 11.4544 75.143 11.61 75.9197C11.4155 75.9003 11.3183 75.8809 11.1432 75.8614C10.6765 75.8226 11.0849 75.8809 9.89858 75.7255C7.73989 75.4537 7.58431 75.5119 7.25369 75.0654L7.1759 74.9489L6.8064 75.2013L6.92308 75.376C6.98143 75.4537 7.05922 75.5119 7.11756 75.5896C7.25369 75.7255 7.40928 75.8809 7.52596 76.0362C7.6621 76.2304 7.73989 76.4245 7.83713 76.6381C7.89547 76.7352 7.93436 76.8129 7.99271 76.8905L8.10939 77.0459L8.45945 76.8323Z" fill="white"/>
<path fill-rule="evenodd" clip-rule="evenodd" d="M4.97858 71.7451L5.38699 71.5703L5.3092 71.3956C5.11472 70.8713 6.1649 70.5412 6.80667 70.2888L10.1128 68.9491C10.6962 68.7161 11.7464 68.2695 11.9603 68.7937L12.0381 68.9685L12.4465 68.7937L12.3687 68.619C12.2326 68.2889 12.1159 68.1724 11.9992 67.9976C11.8242 67.7452 11.8436 67.6287 11.8047 67.3763C11.7853 67.2016 11.7269 67.0462 11.688 66.8909C11.6103 66.6191 11.513 66.3666 11.4158 66.0948C10.7546 64.4638 9.35432 64.658 8.40138 65.0463C7.37065 65.454 6.59275 66.4831 7.21507 67.9976C7.31231 68.2501 7.429 68.4831 7.56513 68.7161L6.35937 69.2015C5.46478 69.551 4.72576 69.9199 4.51184 69.4151L4.43405 69.2403L4.02565 69.4151L4.14233 69.7063C4.20068 69.8422 4.29791 69.9782 4.37571 70.1141C4.4535 70.2694 4.55073 70.4053 4.60908 70.5607C4.66742 70.716 4.72576 70.8907 4.76466 71.0655C4.80356 71.2208 4.823 71.3762 4.88135 71.5121L4.97858 71.7451ZM7.93464 68.5219C7.89574 68.4442 7.85685 68.3666 7.81795 68.2889C7.44844 67.3763 7.91519 66.5802 9.02371 66.1142C10.1128 65.6676 10.8907 65.9589 11.1046 66.4831C11.338 67.0462 10.9879 67.2792 10.2878 67.5705L7.93464 68.5219ZM2.89768 66.5996L3.30608 66.4249L3.22829 66.2501C3.01437 65.7259 4.04509 65.3958 4.76466 65.1045L8.07077 63.7648C8.59586 63.5512 9.64604 63.1046 9.84051 63.6094L9.9183 63.7842L10.3267 63.6094L10.21 63.2988C10.1517 63.1629 10.035 63.0464 9.9572 62.9105C9.85996 62.7745 9.78217 62.6192 9.72383 62.4639C9.66549 62.3085 9.60714 62.1532 9.56825 61.9784C9.5488 61.8231 9.5488 61.6678 9.49046 61.5319L9.35432 61.2212L8.94592 61.3765L9.02371 61.5513C9.19874 61.9979 8.32359 62.3668 7.68182 62.6192L4.27847 63.9978C3.61724 64.2696 2.62541 64.755 2.41149 64.2114L2.3337 64.0172L1.92529 64.192L2.04198 64.4832C2.10032 64.6191 2.19756 64.755 2.27535 64.891C2.35314 65.0463 2.45038 65.1822 2.50872 65.3375C2.56707 65.4929 2.62541 65.6676 2.66431 65.8424C2.7032 66.0171 2.72265 66.1725 2.78099 66.3084L2.89768 66.5996Z" fill="white"/>
<path fill-rule="evenodd" clip-rule="evenodd" d="M8.57684 56.5804L8.12954 56.6581L8.18788 56.9105C8.30457 57.4736 6.92378 57.6677 6.22366 57.8036L2.43136 58.5415L1.30339 58.7551C1.26449 58.658 1.26449 58.5803 1.24505 58.4832C1.07002 57.5901 1.69234 56.9105 2.8981 56.6775C4.29834 56.4056 4.92066 57.027 4.86232 57.6677L5.25128 57.5901C5.25128 57.4153 5.25128 57.2406 5.21238 57.0658C4.94011 55.7066 3.69546 55.2795 2.47025 55.5125C1.77013 55.6484 0.272659 56.2309 0.661614 58.192C0.700509 58.4056 0.7783 58.6191 0.856091 58.8327C0.953329 59.1046 1.05057 59.3764 1.10891 59.6677C1.14781 59.8424 1.16725 60.0366 1.1867 60.2113C1.1867 60.3084 1.20615 60.4249 1.2256 60.522L1.26449 60.7162L1.71179 60.6385L1.6729 60.4443C1.57566 59.9395 2.68418 59.7259 3.55932 59.5512L5.77636 59.124C6.18477 59.0463 7.19605 58.8716 7.6239 58.7939C7.89617 58.7551 8.57684 58.658 8.67407 59.0657L8.71297 59.2599L9.16027 59.1822L9.10192 58.8327C9.06303 58.6774 8.98524 58.5415 8.92689 58.4056C8.86855 58.2502 8.81021 58.0949 8.79076 57.9201C8.75186 57.7454 8.73242 57.5706 8.73242 57.3959C8.73242 57.2406 8.77131 57.0852 8.73242 56.9299L8.57684 56.5804Z" fill="white"/>
<path fill-rule="evenodd" clip-rule="evenodd" d="M0.136134 52.93L0.583432 52.9106V52.697C0.563984 52.2116 1.57527 52.1727 2.21704 52.1533L6.06769 52.0174C6.69002 51.998 7.68185 51.9397 7.7013 52.464V52.6581L8.14859 52.6387L8.12915 52.2892C8.12915 52.1339 8.05136 51.998 8.01246 51.8426C7.97357 51.6679 7.95412 51.5126 7.95412 51.3378C7.95412 51.1631 7.95412 51.0077 7.99301 50.833C8.03191 50.6776 8.0708 50.5223 8.0708 50.3864L8.05136 49.9204L7.60406 49.9398L7.62351 50.2699C7.64295 50.7553 6.69002 50.8136 5.93155 50.833L0.622327 51.0271L0.602879 50.367C0.583432 49.9204 0.42785 49.2796 1.47803 49.2408C1.76974 49.2214 2.06146 49.2796 2.1198 49.299L2.10035 48.9301C1.53637 48.7942 0.816804 48.6777 0 48.5806C0.0777909 49.8621 0.116686 49.8039 0.155582 50.4835C0.155582 50.6971 0.175029 51.2601 0.175029 51.532C0.175029 52.1339 0.116686 51.9786 0.116686 52.5028L0.136134 52.93Z" fill="white"/>
<path fill-rule="evenodd" clip-rule="evenodd" d="M0.13623 45.3187L0.583528 45.3964L0.622423 45.2022C0.719662 44.6391 1.76984 44.8915 2.45051 45.008L5.97055 45.5711C6.59287 45.6682 7.72084 45.8429 7.64305 46.3866L7.60415 46.5808L8.05145 46.6584L8.09035 46.4643C8.14869 46.1148 8.10979 45.9594 8.09035 45.7459C8.0709 45.4546 8.14869 45.3575 8.24593 45.1051C8.32372 44.9498 8.36261 44.7944 8.40151 44.6197C8.4793 44.3479 8.53764 44.076 8.57654 43.8042C8.84881 42.0567 7.54581 41.513 6.53453 41.3577C5.44546 41.1829 4.25915 41.6489 3.98688 43.2605C3.94798 43.5129 3.92854 43.7848 3.92854 44.0566L2.64499 43.843C1.69205 43.6877 0.875244 43.6294 0.953035 43.0858L0.99193 42.8916L0.544633 42.8139L0.505737 43.1246C0.486289 43.2799 0.486289 43.4353 0.486289 43.5906C0.486289 43.7654 0.486289 43.9401 0.447394 44.0954C0.427946 44.2702 0.369603 44.4449 0.31126 44.6003C0.272364 44.7362 0.194574 44.8915 0.175126 45.0469L0.13623 45.3187ZM4.31749 44.076C4.31749 43.9984 4.33694 43.9013 4.35639 43.8042C4.51197 42.8333 5.32877 42.3868 6.51508 42.5615C7.68194 42.7557 8.18759 43.3964 8.10979 43.9401C8.01256 44.542 7.60415 44.5614 6.86514 44.4449L4.31749 44.076ZM1.01138 39.8237L1.45868 39.9014L1.49757 39.7072C1.59481 39.1442 2.64499 39.3966 3.40345 39.5131L6.92348 40.0762C7.48747 40.1732 8.59599 40.3286 8.5182 40.8528L8.4793 41.047L8.9266 41.1247L8.98494 40.7752C9.00439 40.6198 8.96549 40.4645 8.96549 40.3092C8.96549 40.1344 8.96549 39.9597 9.00439 39.8043C9.02384 39.6296 9.06273 39.4742 9.12108 39.3189C9.17942 39.183 9.25721 39.0277 9.27666 38.8917L9.335 38.5617L8.8877 38.484L8.86826 38.6782C8.79046 39.1636 7.83753 39.0277 7.1763 38.9112L3.55903 38.3287C2.83946 38.2122 1.76984 38.1345 1.84763 37.5714L1.88653 37.3772L1.41978 37.2802L1.36144 37.5908C1.34199 37.7462 1.34199 37.9015 1.34199 38.0568C1.34199 38.2316 1.34199 38.4063 1.30309 38.5617C1.28365 38.7364 1.2253 38.9112 1.16696 39.0665C1.12806 39.2024 1.06972 39.3577 1.03083 39.5131L1.01138 39.8237Z" fill="white"/>
<path fill-rule="evenodd" clip-rule="evenodd" d="M8.09023 35.9598L8.32361 36.0569C9.08207 36.3481 9.80163 36.7753 10.599 35.7656C10.7935 35.5326 10.949 35.2608 11.0463 34.9889C11.6881 33.3385 10.5406 32.1735 9.52937 31.7852C8.16803 31.2609 7.21509 32.1541 6.98171 32.7754L6.92337 32.9308L6.80668 32.8531C6.92337 32.2123 6.88448 31.125 5.71761 30.6784C4.95915 30.3872 3.90897 30.3289 3.42278 31.591C2.99493 32.6978 3.15051 32.989 2.78101 33.5327L3.07272 33.6492C3.36444 33.7657 4.18124 34.1152 4.5313 34.2705L4.64799 33.9404C3.88953 33.455 3.34499 32.989 3.61726 32.2706C3.85063 31.6881 4.49241 31.5133 5.30921 31.824C6.2038 32.1735 6.53442 32.9696 6.30104 33.5715C6.26215 33.688 6.18436 33.8434 6.10657 33.9599L6.70945 34.1929C6.72889 34.0569 6.74834 33.9404 6.82613 33.7657C7.25398 32.6395 8.32361 32.6783 9.23765 33.0278C10.424 33.4744 10.7935 34.2899 10.5406 34.9501C10.3462 35.4744 9.74329 36.018 8.16802 35.6879L8.09023 35.9598Z" fill="white"/>
<path fill-rule="evenodd" clip-rule="evenodd" d="M14.0605 24.9505C14.7023 25.7466 14.6439 26.8922 14.2939 27.4553C13.7104 28.4261 11.9212 29.028 9.7431 27.7271C7.93446 26.6398 7.1371 25.067 7.97335 23.669C8.4012 22.9506 9.35414 22.4652 10.4043 23.0865L10.5988 22.7758C10.521 22.737 10.4627 22.6982 10.3849 22.6593C9.99592 22.4263 9.2569 21.9409 8.8485 21.6302C8.79016 21.8244 8.65402 22.038 8.53734 22.2516C8.26507 22.6982 7.83722 22.97 7.33158 23.7855C6.06748 25.8825 7.23434 27.8048 8.96519 28.8339C11.1239 30.1348 13.4965 29.7659 14.6439 27.863C14.9551 27.3582 15.2079 26.6592 15.2079 26.0961C15.2079 25.7272 15.1301 25.3777 14.255 24.6593L14.0605 24.9505Z" fill="white"/>
<path fill-rule="evenodd" clip-rule="evenodd" d="M12.8353 17.4556L16.6082 20.8341C17.1916 21.3584 18.1251 22.2127 17.7556 22.6205L17.6195 22.7758L17.9501 23.0671L18.2029 22.7952C18.3196 22.6787 18.3779 22.5234 18.4363 22.3875C18.514 22.2322 18.6307 22.0962 18.7474 21.9797C18.8641 21.8632 19.0002 21.7273 19.1364 21.6302C19.2725 21.5332 19.4086 21.4749 19.5253 21.3584L19.7587 21.106L19.4281 20.8147L19.292 20.9701C18.9225 21.3972 17.989 20.5041 17.4055 19.9992L13.6327 16.5625L14.1383 15.9994C14.3911 15.7275 14.8773 15.2033 15.5774 15.8246C15.6163 15.8635 15.7719 15.9994 15.9469 16.213L16.1998 15.9411C15.5385 15.1839 15.4608 15.0091 14.7995 14.3295C14.2939 14.9703 13.516 15.9994 12.8937 16.6984C12.6408 16.9702 12.0185 17.6498 11.7851 17.8634C11.5323 18.1158 11.474 18.1546 10.8711 18.6983C11.3378 19.1837 11.4934 19.3973 12.2908 20.2711L12.5242 19.9992C11.824 19.009 11.9213 18.4653 12.3297 18.0187L12.8353 17.4556Z" fill="white"/>
<path fill-rule="evenodd" clip-rule="evenodd" d="M21.8591 18.9314L22.112 18.7372C22.1897 18.679 22.2481 18.5625 22.3064 18.4848C22.4037 18.3489 22.5398 18.2518 22.6759 18.1353C23.3177 17.611 22.8704 18.1159 23.4344 17.6499L23.5705 17.5528L23.2788 17.2033L23.1038 17.3392C22.9482 17.4557 22.5787 17.6693 22.2286 16.8926L21.6063 15.5335C22.0342 15.2228 22.1314 15.1645 22.3259 15.0092C22.6176 14.7568 22.9482 14.4655 23.0843 14.3296L24.4457 15.3199C24.7763 15.5723 24.8346 15.9024 24.6207 16.0771L24.4457 16.213L24.7374 16.5625L25.0486 16.3101C25.1847 16.1936 25.3014 16.0383 25.4181 15.9024C25.5348 15.7859 25.632 15.6694 25.7681 15.5723C25.9237 15.4364 26.0987 15.3199 26.2932 15.2034C26.4294 15.1257 26.5849 15.048 26.7211 14.9509L26.8961 14.7956L26.6044 14.4461L26.546 14.5626C26.3516 14.7179 26.196 14.9704 25.3792 14.4461C24.6013 13.9413 25.2819 14.4655 21.7813 11.9802C20.2255 10.8734 19.856 10.6016 19.3698 10.2133C19.2726 10.4463 19.1365 10.6793 18.9614 10.8928C19.3115 11.4948 19.6032 12.1549 20.8284 14.9704C21.0812 15.5529 21.4507 16.446 21.7425 17.3198C21.8786 17.7081 22.0147 18.213 21.723 18.446L21.5674 18.5625L21.8591 18.9314ZM20.1283 12.1549C20.6145 12.6209 20.8284 12.6598 22.6759 14.0384C22.5398 14.2131 22.4037 14.349 22.1314 14.5626C21.8397 14.815 21.6258 14.9509 21.4118 15.0674C20.3422 12.7374 20.3033 12.5821 20.0699 12.2326L20.1283 12.1549Z" fill="white"/>
<path fill-rule="evenodd" clip-rule="evenodd" d="M24.9126 6.8347L25.1071 7.24245L25.2821 7.16479C25.6516 6.99004 25.9044 7.41721 26.0795 7.74729C26.235 8.05796 26.5268 8.62105 26.6823 8.93171L28.1798 12.019C28.3937 12.4461 28.8021 13.3393 28.3548 13.5529L28.1798 13.6306L28.3743 14.0383L28.6855 13.883C28.8216 13.8247 28.9383 13.6888 29.055 13.5917C29.1911 13.4947 29.3467 13.3976 29.5023 13.3199C29.6578 13.2422 29.8134 13.184 29.9885 13.1452C30.144 13.1063 30.2996 13.1063 30.4357 13.0287L30.7469 12.8733L30.5524 12.4656L30.3774 12.5432C29.9885 12.7374 29.58 12.0578 29.2883 11.4559L28.4132 9.65013C28.666 9.57247 28.9577 9.43655 29.3856 9.24238C29.58 9.1453 29.794 9.04821 29.9885 8.95113C30.1829 8.85405 30.3969 8.75696 30.5913 8.65988C31.0192 8.44629 31.2914 8.29096 31.5054 8.13563L32.3805 9.94139C32.6722 10.5433 32.964 11.2811 32.575 11.4753L32.4 11.553L32.5944 11.9607L32.9056 11.8054C33.0417 11.7471 33.1584 11.6112 33.2751 11.5141C33.4113 11.4171 33.5668 11.32 33.7224 11.2423C33.878 11.1646 34.0336 11.1064 34.2086 11.0676C34.3642 11.0287 34.5198 11.0287 34.6559 10.9511L34.9671 10.7957L34.7726 10.388L34.5976 10.4656C34.1503 10.6792 33.703 9.80547 33.489 9.3783L31.9916 6.29103C31.5637 5.4367 30.9219 4.34936 31.4665 4.07752L31.6415 3.99985L31.447 3.5921L31.1748 3.72802C30.9997 3.88335 30.8636 3.98044 30.7469 4.07752C30.6108 4.1746 30.4552 4.27169 30.2996 4.34936C30.144 4.42702 29.9885 4.48527 29.8134 4.52411C29.6578 4.56294 29.5023 4.60177 29.3661 4.67944L29.0744 4.81536L29.2689 5.22311L29.4439 5.14544C29.8523 4.95128 30.144 5.51436 30.2607 5.72795C30.358 5.9027 30.7469 6.65995 30.8636 6.93179L31.2331 7.68904C30.9997 7.84437 30.6497 8.09679 29.7356 8.54338C28.8216 8.98996 28.4132 9.12588 28.1409 9.20355L27.7714 8.44629C27.6353 8.17446 27.2658 7.39779 27.188 7.22304C27.0907 6.99004 26.8185 6.40753 27.2269 6.21337L27.4019 6.1357L27.2269 5.70853L26.9352 5.84445C26.799 5.9027 26.6629 6.0192 26.5462 6.09687C26.4101 6.19395 26.2545 6.29103 26.1184 6.3687C25.9628 6.44637 25.7877 6.50462 25.6322 6.56287C25.4766 6.6017 25.321 6.64053 25.1849 6.7182L24.9126 6.8347Z" fill="white"/>
<path fill-rule="evenodd" clip-rule="evenodd" d="M45.2352 6.54345C45.0602 7.55312 44.1851 8.27155 43.5238 8.40746C42.3959 8.62105 40.7623 7.70846 40.2761 5.22311C39.8677 3.14552 40.5094 1.49509 42.1041 1.18442C42.9404 1.02909 43.9322 1.39801 44.1656 2.60185L44.5351 2.52418C44.5157 2.44651 44.4962 2.36885 44.4768 2.29118C44.399 1.84459 44.2434 0.970839 44.2239 0.466003C44.0295 0.54367 43.7961 0.601921 43.5433 0.640754C43.0376 0.737838 42.532 0.601921 41.5985 0.776672C39.187 1.24267 38.5452 3.37852 38.9342 5.35903C39.4204 7.82496 41.2679 9.33947 43.446 8.9123C44.0295 8.7958 44.7101 8.52396 45.138 8.15504C45.4103 7.90263 45.6242 7.61137 45.5658 6.46579L45.2352 6.54345Z" fill="white"/>
<path fill-rule="evenodd" clip-rule="evenodd" d="M47.5298 8.27154H47.8409C47.9382 8.27154 48.0549 8.23271 48.1521 8.21329C48.3271 8.17446 48.4827 8.17446 48.6578 8.19388C49.4746 8.21329 48.8328 8.31038 49.5523 8.31038H49.7274V7.86379H49.5135C49.319 7.86379 48.9106 7.78612 49.1245 6.97062L49.5329 5.53378C50.058 5.57261 50.1552 5.59203 50.408 5.59203C50.797 5.59203 51.2443 5.59203 51.4388 5.57261L51.8277 7.20362C51.925 7.61137 51.7499 7.90262 51.4777 7.88321H51.2637V8.32979H51.6721C51.8472 8.32979 52.0222 8.29096 52.2167 8.25213C52.3723 8.23271 52.5278 8.21329 52.6834 8.23271C52.8974 8.23271 53.1113 8.25213 53.3058 8.29096C53.4613 8.31038 53.6169 8.36863 53.792 8.36863H54.0253V7.92204H53.9281C53.6753 7.92204 53.403 8.01912 53.1113 7.08712C52.839 6.19395 53.0335 7.04829 51.9444 2.8931C51.4582 1.04851 51.3415 0.60192 51.2249 0C51.0109 0.116501 50.7581 0.213584 50.4858 0.252418C50.3691 0.932005 50.1747 1.63101 49.2801 4.58236C49.105 5.20369 48.8133 6.11628 48.4633 6.97062C48.3077 7.35895 48.0938 7.82496 47.7243 7.82496H47.5298V8.27154ZM50.5636 1.96109C50.6414 2.64068 50.7776 2.79601 51.3026 5.02894C51.0887 5.08719 50.8942 5.10661 50.5636 5.08719C50.1747 5.08719 49.9413 5.04836 49.6885 5.00953C50.3692 2.5436 50.4469 2.38826 50.4858 1.98051L50.5636 1.96109Z" fill="white"/>
<path fill-rule="evenodd" clip-rule="evenodd" d="M55.3093 8.60171L55.6983 8.67937C55.9122 8.71821 56.1067 8.62112 56.4956 8.69879C56.6901 8.73763 56.8846 8.81529 57.0791 8.89296C57.1958 8.93179 57.293 8.99004 57.4097 9.00946L57.5653 9.04829L57.643 8.60171L57.4291 8.54346C57.2346 8.50462 56.9429 8.32987 57.3513 7.45612L59.0044 3.94168C59.1989 3.51451 59.3156 3.28151 59.3933 2.89318L59.4711 2.91259C59.4517 3.18443 59.4322 3.2621 59.4517 3.39801L59.7628 7.4367C59.8017 8.0192 59.9573 9.02888 59.1989 8.87354L59.0822 8.85413L59.0044 9.32013L59.4711 9.41721C59.6267 9.43663 59.7628 9.41721 59.9184 9.3978C60.0935 9.37838 60.2685 9.41721 60.4435 9.45605C60.638 9.49488 60.813 9.53371 60.9881 9.6308C61.1047 9.68905 61.2409 9.76671 61.3576 9.78613L61.6687 9.84438L61.7465 9.3978L61.552 9.35896C61.1047 9.26188 60.9881 8.03862 60.8714 6.87362C60.638 4.38827 60.5213 3.12618 60.463 1.20392C60.2296 1.22334 59.9768 1.22334 59.724 1.22334C59.1794 2.56309 58.6543 3.59218 58.1098 4.64069C57.1374 6.56295 57.1374 6.48528 56.7679 7.18428C56.554 7.57262 56.1261 8.32987 55.6205 8.21337L55.3871 8.15512L55.3093 8.60171Z" fill="white"/>
<path fill-rule="evenodd" clip-rule="evenodd" d="M66.6274 3.10669L66.4524 3.51444L66.6274 3.59211C67.1525 3.82511 66.6274 4.77653 66.3357 5.41728L64.8771 8.6793C64.6243 9.24239 64.1575 10.2909 63.6713 10.0773L63.4963 9.99964L63.3213 10.4074L63.4963 10.4851C63.8075 10.621 63.9825 10.6404 64.1964 10.6792C64.4881 10.7375 64.5659 10.8346 64.7799 10.9899C64.916 11.1064 65.0521 11.1841 65.2077 11.2617C65.4605 11.4171 65.6939 11.5336 65.9467 11.6501C67.5609 12.3685 68.436 11.2617 68.8444 10.3103C69.2917 9.30064 69.1556 8.03855 67.6581 7.35896C67.4248 7.26188 67.1719 7.16479 66.9191 7.08713L67.4442 5.9027C67.8332 5.02895 68.1249 4.25228 68.6111 4.46586L68.7861 4.54353L68.9611 4.13578L68.6694 4.01928C68.5333 3.96103 68.3777 3.92219 68.2221 3.88336C68.0471 3.84453 67.8915 3.78628 67.7359 3.70861C67.5803 3.65036 67.4248 3.55328 67.2886 3.45619C67.1525 3.37852 67.0358 3.28144 66.8997 3.22319L66.6274 3.10669ZM66.7635 7.45605C66.8413 7.47546 66.9386 7.5143 67.0164 7.55313C67.9304 7.96088 68.1443 8.85405 67.6581 9.96081C67.1719 11.0481 66.4135 11.3588 65.9078 11.1258C65.3438 10.8928 65.4216 10.4851 65.7328 9.78606L66.7635 7.45605ZM71.7227 5.37845L71.5477 5.7862L71.7227 5.86387C72.2478 6.09687 71.7422 7.04829 71.4115 7.7473L69.953 11.0093C69.7196 11.5336 69.2723 12.5627 68.7861 12.3491L68.6111 12.2714L68.436 12.6792L68.7472 12.8151C68.8833 12.8733 69.0389 12.8927 69.1945 12.9122C69.3695 12.951 69.5251 13.0092 69.6807 13.0675C69.8363 13.1452 69.9919 13.2228 70.128 13.3199C70.2447 13.417 70.3614 13.5335 70.4975 13.5917L70.8087 13.7277L70.9837 13.3199L70.8087 13.2422C70.3614 13.0481 70.7503 12.1743 71.0226 11.5336L72.5201 8.17447C72.8118 7.5143 73.1813 6.48521 73.7064 6.71821L73.9008 6.83471L74.0759 6.42696L73.7842 6.29104C73.648 6.23279 73.4924 6.19396 73.3369 6.15512C73.1618 6.11629 73.0062 6.05804 72.8507 5.98037C72.6951 5.92212 72.559 5.82504 72.4034 5.74737C72.2672 5.6697 72.1506 5.57262 71.995 5.51437L71.7227 5.37845Z" fill="white"/>
<path fill-rule="evenodd" clip-rule="evenodd" d="M77.2273 8.46558L76.9551 8.83449L77.1107 8.951C77.5385 9.26166 76.994 9.94125 76.5661 10.5238L74.174 13.8052C73.8823 14.1935 73.2989 14.9702 72.8905 14.6789L72.7349 14.5624L72.4626 14.9314L72.7349 15.1255C72.8516 15.2226 73.0072 15.2614 73.1628 15.3197C73.3183 15.3974 73.4739 15.4944 73.6101 15.5915C73.7462 15.6886 73.8823 15.8051 73.999 15.941C74.0963 16.0575 74.1935 16.1935 74.3102 16.2905L74.5824 16.4847L74.8547 16.1158L74.6991 15.9993C74.3102 15.708 74.8547 14.9119 75.1464 14.5042L77.5385 11.2228C77.9664 10.6403 78.4526 9.92183 78.8804 10.2325L79.036 10.349L79.3082 9.98008L79.0554 9.80533C78.9387 9.70825 78.8026 9.65 78.6665 9.59175C78.5109 9.51408 78.3553 9.417 78.2192 9.31991C78.083 9.22283 77.9469 9.08691 77.8302 8.97041C77.7135 8.85391 77.6163 8.73741 77.4996 8.65974L77.2273 8.46558ZM80.0667 11.0868L80.2417 11.2033C80.3584 11.3004 80.3584 11.4752 80.1834 11.6499C79.7944 12.0188 79.1527 12.1159 78.6665 12.2324C78.1025 12.3683 77.5191 12.5625 76.6245 12.8149C76.605 14.0188 76.4689 15.2614 76.43 15.7857C76.2939 17.0478 76.2161 17.708 76.8189 18.1545C77.1107 18.3681 77.2273 18.3487 77.6941 18.4846L77.9664 18.1157C77.5968 18.0769 77.4802 17.9798 77.4218 17.941C77.1885 17.7662 77.3051 17.2031 77.3829 16.776C77.4802 16.1352 77.5385 15.4556 77.6163 14.7954C77.6941 14.2129 77.7913 13.611 77.3829 12.9314C77.5774 12.8926 77.6746 12.8732 77.8497 12.8343C78.297 12.7178 77.908 12.7955 79.0749 12.5625C81.2141 12.1159 81.3308 11.9994 81.7976 12.3295L81.8948 12.4072L82.1671 12.0383L81.992 11.9218C81.9142 11.8635 81.817 11.8247 81.7392 11.7858C81.5642 11.7082 81.3697 11.6111 81.2141 11.4946C81.0391 11.3587 80.8835 11.2033 80.7279 11.0286C80.6501 10.9509 80.5724 10.8927 80.4946 10.8344L80.3195 10.7179L80.0667 11.0868Z" fill="white"/>
<path fill-rule="evenodd" clip-rule="evenodd" d="M87.2227 17.1838L86.8726 17.4751L86.9893 17.6304C87.3199 18.0382 86.6198 18.5624 86.0558 19.009L82.9053 21.5526C82.5358 21.8633 81.7579 22.4458 81.4467 22.0769L81.33 21.9215L80.98 22.2128L81.1939 22.4846C81.2911 22.6011 81.4273 22.6788 81.544 22.7759C81.6801 22.8924 81.7968 23.0089 81.9135 23.1448C82.0107 23.2807 82.1274 23.4166 82.2052 23.572C82.2635 23.7079 82.3219 23.8632 82.4191 23.9797L82.633 24.2515L82.9831 23.9603L82.8664 23.805C82.5552 23.4166 83.2943 22.7953 83.6832 22.4846L86.8337 19.941C87.3977 19.4944 88.0589 18.9119 88.3896 19.3197L88.5062 19.475L88.8563 19.1838L88.6618 18.9508C88.5646 18.8343 88.4479 18.7372 88.3312 18.6207C88.2145 18.5042 88.0784 18.3877 87.9617 18.2518C87.845 18.1158 87.7672 17.9605 87.67 17.8246C87.5922 17.6887 87.5144 17.5528 87.4172 17.4363L87.2227 17.1838ZM89.2841 20.4459L89.4203 20.6012C89.5175 20.7177 89.4592 20.9119 89.2453 21.0089C88.7785 21.2614 88.1173 21.2031 87.6311 21.1837C87.0477 21.1643 86.4253 21.2031 85.5113 21.2225C85.1807 22.3681 84.7334 23.5525 84.5389 24.038C84.0916 25.2224 83.8193 25.8437 84.3055 26.4262C84.5389 26.7175 84.6556 26.7175 85.064 26.9699L85.4141 26.6786C85.0834 26.5427 84.9862 26.4262 84.9279 26.368C84.7528 26.1544 85.0057 25.6301 85.1807 25.2418C85.4335 24.6399 85.6863 23.9991 85.9197 23.3972C86.1336 22.8341 86.3864 22.2904 86.192 21.5332C86.3864 21.5526 86.4837 21.5526 86.6587 21.5526C87.1255 21.5526 86.7171 21.5332 87.9034 21.5914C90.0815 21.7079 90.2371 21.6303 90.5871 22.0769L90.6649 22.1739L91.015 21.8827L90.8789 21.7274C90.8205 21.6497 90.7427 21.5914 90.6649 21.5332C90.5094 21.3973 90.3538 21.2614 90.2371 21.106C90.101 20.9313 89.9843 20.7371 89.887 20.5235C89.8287 20.4264 89.7703 20.3488 89.712 20.2711L89.5953 20.1158L89.2841 20.4459Z" fill="white"/>
<path fill-rule="evenodd" clip-rule="evenodd" d="M93.2128 25.4165L92.8044 25.6107L92.8822 25.7854C93.1156 26.3097 92.1043 26.6786 91.4625 26.9698L88.2342 28.4649C87.6702 28.7368 86.6395 29.2222 86.4061 28.7174L86.3283 28.5426L85.9199 28.7368L85.9977 28.9115C86.1533 29.2222 86.27 29.3387 86.4061 29.5134C86.6006 29.7464 86.5811 29.8629 86.6395 30.1154C86.6784 30.2901 86.7173 30.4454 86.7756 30.6008C86.8534 30.8726 86.9701 31.125 87.0868 31.3775C87.8258 32.9696 89.226 32.6978 90.1595 32.2706C91.1708 31.8046 91.8904 30.7561 91.1902 29.261C91.0736 29.028 90.9374 28.795 90.8013 28.562L91.9876 28.0184C92.8628 27.6106 93.5823 27.2223 93.8157 27.7077L93.8935 27.8824L94.3019 27.6883L94.1657 27.397C94.1074 27.2611 94.0102 27.1252 93.9129 27.0087C93.8157 26.8728 93.7185 26.7174 93.6601 26.5621C93.5823 26.4068 93.5434 26.232 93.4851 26.0767C93.4462 25.9213 93.4073 25.766 93.3489 25.6301L93.2128 25.4165ZM90.4512 28.795C90.4901 28.8727 90.529 28.9504 90.5679 29.028C90.9958 29.9212 90.5679 30.7561 89.4788 31.261C88.4092 31.7658 87.6313 31.5134 87.3785 30.9891C87.1257 30.4454 87.4563 30.193 88.137 29.8629L90.4512 28.795ZM95.566 30.4649L95.1576 30.659L95.2354 30.8338C95.4688 31.3386 94.4769 31.727 93.7573 32.057L90.529 33.5715C90.0234 33.8046 88.9927 34.3094 88.7593 33.824L88.6815 33.6492L88.2731 33.8434L88.4092 34.154C88.4676 34.29 88.5843 34.4065 88.6815 34.523C88.7787 34.6589 88.876 34.8142 88.9343 34.9696C89.0121 35.1249 89.0705 35.2802 89.1093 35.455C89.1482 35.6103 89.1482 35.7656 89.2066 35.9016L89.3427 36.2122L89.7511 36.0181L89.6733 35.8433C89.4594 35.3967 90.3346 34.989 90.9569 34.6977L94.2824 33.1444C94.9437 32.8337 95.8772 32.3095 96.13 32.8337L96.2078 33.0085L96.6162 32.8143L96.48 32.523C96.4217 32.3871 96.3244 32.2512 96.2272 32.1347C96.13 31.9988 96.0327 31.8435 95.9744 31.6881C95.8966 31.5328 95.8577 31.358 95.7994 31.2027C95.7605 31.0474 95.7216 30.892 95.6632 30.7561L95.566 30.4649Z" fill="white"/>
<path fill-rule="evenodd" clip-rule="evenodd" d="M91.9877 37.4938L91.7349 37.5521C90.9569 37.7462 90.1012 37.8045 90.0429 39.1054C90.0235 39.4161 90.0429 39.7073 90.1207 39.9986C90.5485 41.7073 92.1433 42.0179 93.2129 41.7655C94.6326 41.416 94.8854 40.1345 94.7298 39.4937L94.6909 39.3384L94.8076 39.2996C95.0799 39.9015 95.7411 40.7558 96.9663 40.4646C97.7637 40.2704 98.6388 39.7267 98.3082 38.4064C98.0165 37.2608 97.7248 37.1055 97.7248 36.4453L97.4136 36.523C97.1219 36.6006 96.2273 36.7754 95.8578 36.8531L95.9356 37.1831C96.8496 37.1443 97.5497 37.2026 97.7442 37.9598C97.8998 38.5812 97.4525 39.086 96.6162 39.2802C95.6827 39.5132 94.9437 39.0472 94.7882 38.4258C94.7493 38.2899 94.7298 38.1346 94.7104 37.9987L94.088 38.154C94.1464 38.2705 94.2047 38.387 94.2436 38.5812C94.5353 39.7462 93.6407 40.3287 92.6878 40.5617C91.4626 40.8723 90.6847 40.4258 90.5291 39.7267C90.393 39.1831 90.568 38.387 92.046 37.7657L91.9877 37.4938Z" fill="white"/>
<path fill-rule="evenodd" clip-rule="evenodd" d="M91.1902 43.9014L91.2096 44.1926C91.2291 44.5227 91.4041 44.8334 91.4041 45.0664C91.4236 45.3576 91.3069 45.7071 91.3263 45.8819L91.3458 46.0955L91.7931 46.0566L91.7736 45.8431C91.7347 45.2994 92.7655 45.3382 93.135 45.3188C94.0684 45.2605 96.4994 45.2023 97.0245 45.1635L97.219 45.144V45.2411C96.9662 45.2994 96.3633 45.4741 94.3991 46.4256C93.5823 46.8139 93.1544 47.0663 92.4932 47.3576C92.1042 47.5323 92.1042 47.5323 91.6569 47.7459L91.6764 48.0954C92.3376 48.2896 92.4154 48.309 92.746 48.4255C93.5239 48.6585 93.6212 48.6973 94.6713 49.0274C95.6048 49.2992 96.0132 49.4352 96.4411 49.5517C97.4329 49.8235 96.9467 49.6682 97.5301 49.8429V49.9012L96.9078 49.9206L93.2711 50.3477C92.2209 50.4642 92.0653 50.2507 92.0459 49.9594V49.8235L91.5986 49.8623L91.618 50.0953C91.6375 50.2507 91.6764 50.3866 91.7153 50.5419C91.7542 50.7361 91.8125 50.9108 91.832 51.105C91.8514 51.2992 91.8514 51.4933 91.8125 51.7069C91.7931 51.8428 91.7542 51.9982 91.7542 52.1535L91.7931 52.4253L92.2404 52.3865L92.2209 52.2506C92.1626 51.5322 93.7573 51.4739 94.8853 51.338L97.9774 50.9691C98.3469 50.9302 98.7359 50.872 99.1249 50.8332C99.2026 50.8332 99.2804 50.8137 99.3582 50.8137C99.5527 50.7943 99.7083 50.7749 100 50.7361C99.8833 50.4642 99.8055 50.1924 99.7472 49.8817C99.5722 49.8429 98.7359 49.6682 96.655 49.0468C95.1964 48.6002 94.438 48.2507 93.2905 48.076V47.9983C93.6989 47.8818 94.0101 47.7265 94.3991 47.5711L99.6305 45.28C99.5138 45.1052 99.436 44.8916 99.3777 44.678C99.0665 44.6975 97.8608 44.7557 96.8884 44.7557H93.485C92.0264 44.7557 91.6958 44.3285 91.6764 44.0179L91.6569 43.882L91.1902 43.9014Z" fill="white"/>
<path fill-rule="evenodd" clip-rule="evenodd" d="M91.4237 53.8817L91.3848 54.1923C91.3654 54.2894 91.4043 54.4059 91.4043 54.503C91.4237 54.6777 91.3848 54.8525 91.3654 55.0078C91.2292 55.8233 91.2292 55.1632 91.1126 55.8622L91.0931 56.0369L91.5404 56.1146L91.5793 55.901C91.5987 55.7068 91.7543 55.2991 92.5128 55.6486L93.8741 56.2505C93.7769 56.7748 93.7185 56.8718 93.6991 57.1048C93.6408 57.4932 93.5824 57.9203 93.5824 58.1145L91.9099 58.2893C91.5015 58.3281 91.2292 58.1145 91.2681 57.8427L91.307 57.6291L90.8597 57.5514L90.8014 57.9592C90.7819 58.1339 90.8014 58.3281 90.8014 58.5028C90.8014 58.6582 90.7819 58.8135 90.7625 58.9689C90.7236 59.1824 90.6847 59.3766 90.6069 59.5902C90.5486 59.7455 90.4902 59.9009 90.4708 60.0562L90.4319 60.2892L90.8792 60.3669L90.8986 60.2698C90.9375 60.0174 90.8792 59.7261 91.8516 59.5708C92.7656 59.4154 91.8905 59.4931 96.169 58.9883C98.0748 58.7747 98.5221 58.7164 99.1445 58.697C99.0667 58.464 99.0083 58.2116 98.9889 57.9398C98.3277 57.7262 97.6664 57.4349 94.866 56.1534C94.2825 55.8816 93.4268 55.4738 92.61 55.0078C92.2405 54.7942 91.8127 54.5224 91.871 54.1535L91.9099 53.9593L91.4237 53.8817ZM97.2386 57.765C96.5579 57.7456 96.3829 57.8621 94.0881 58.0757C94.0686 57.8621 94.0881 57.6679 94.127 57.3378C94.1853 56.9495 94.2436 56.7165 94.3409 56.4835C96.694 57.5126 96.8302 57.5903 97.2386 57.6873V57.765Z" fill="white"/>
<path fill-rule="evenodd" clip-rule="evenodd" d="M96.2662 66.3665L91.4821 64.7161C90.7431 64.4636 89.5568 64.0365 89.7318 63.5316L89.7901 63.3375L89.3623 63.1821L89.2456 63.5316C89.1873 63.687 89.2067 63.8423 89.1873 63.9976C89.1678 64.1724 89.1095 64.3471 89.0706 64.5025C89.0122 64.6578 88.9539 64.8326 88.8567 64.9685C88.7789 65.1044 88.6622 65.2209 88.6233 65.3762L88.5066 65.7063L88.9344 65.8616L88.9928 65.6675C89.1678 65.1238 90.3736 65.5898 91.1126 65.8422L95.8967 67.4926L95.6634 68.1917C95.5467 68.5412 95.2744 69.2207 94.4187 68.9295C94.3798 68.9101 94.1659 68.8518 93.9325 68.7159L93.8158 69.0654C94.691 69.512 94.8271 69.6285 95.7217 69.9974C95.9356 69.2207 96.2468 67.9781 96.558 67.0849C96.6746 66.7354 96.9858 65.8811 97.1219 65.5898C97.2581 65.2597 97.297 65.2015 97.647 64.4636C97.0247 64.2112 96.7913 64.0753 95.7411 63.5705L95.6245 63.9005C96.6746 64.5413 96.7719 65.085 96.5774 65.6481L96.2662 66.3665Z" fill="white"/>
<path fill-rule="evenodd" clip-rule="evenodd" d="M93.8551 73.2401L93.4662 73.0071L93.3689 73.1818C93.0578 73.6672 92.1826 73.0071 91.5992 72.6382L88.5654 70.7547C88.0403 70.4246 87.0484 69.8227 87.3402 69.3567L87.4374 69.2014L87.0484 68.9684L86.9512 69.1431C86.7567 69.4344 86.7373 69.6091 86.6595 69.8033C86.5622 70.0946 86.465 70.1528 86.2705 70.3276C86.1344 70.4441 86.0372 70.58 85.9399 70.7159C85.7649 70.9295 85.6093 71.1625 85.4537 71.3955C84.5202 72.8906 85.4926 73.9002 86.3872 74.4439C87.3207 75.0264 88.6043 75.0653 89.4794 73.6867C89.6155 73.4537 89.7322 73.2207 89.8489 72.9877L90.9574 73.6672C91.7742 74.1721 92.4938 74.5604 92.2021 75.0264L92.1049 75.2012L92.4938 75.4342L92.6688 75.1623C92.7466 75.0264 92.805 74.8711 92.8633 74.7352C92.9411 74.5798 92.9994 74.4245 93.0967 74.2692C93.1939 74.1332 93.3106 73.9779 93.4078 73.8614C93.5051 73.7449 93.6218 73.6284 93.6996 73.4925L93.8551 73.2401ZM89.5183 72.7547C89.4794 72.8323 89.4405 72.91 89.3822 72.9877C88.8571 73.8226 87.943 73.9197 86.9123 73.2789C85.901 72.6576 85.6871 71.8615 85.9983 71.3761C86.3094 70.8712 86.7178 70.9877 87.3402 71.3955L89.5183 72.7547ZM90.8991 77.9389L90.5101 77.7059L90.4129 77.8807C90.1212 78.3661 89.246 77.7253 88.5848 77.3176L85.5704 75.4342C85.0842 75.1429 84.1118 74.541 84.4036 74.0944L84.5008 73.9391L84.1118 73.7061L83.9368 73.9973C83.859 74.1332 83.8201 74.2886 83.7812 74.4245C83.7229 74.5798 83.6451 74.7352 83.5478 74.8905C83.4506 75.0264 83.3534 75.1623 83.2367 75.2983C83.12 75.4148 83.0033 75.5118 82.9255 75.6283L82.7505 75.9196L83.1394 76.1526L83.2367 75.9973C83.4895 75.5895 84.3063 76.0749 84.8897 76.4438L88.0014 78.3855C88.6043 78.7739 89.5766 79.2787 89.2655 79.7641L89.1682 79.9389L89.5572 80.1719L89.7322 79.9C89.81 79.7641 89.8684 79.6088 89.9267 79.4729C90.0045 79.3175 90.0628 79.1622 90.1601 79.0069C90.2573 78.8709 90.374 78.7156 90.4712 78.5991C90.5685 78.4826 90.6852 78.3661 90.763 78.2302L90.8991 77.9389Z" fill="white"/>
</svg>
